<svg height="512pt" viewBox="0 0 512.002 512" width="512pt" xmlns="http://www.w3.org/2000/svg"><path d="m280.152344 34.003906c0 13.253906-10.746094 24-24 24s-24-10.746094-24-24c0-13.257812 10.746094-24 24-24s24 10.742188 24 24zm0 0" fill="#fff"/><path d="m279.847656 478.003906c0 13.253906-10.742187 24-24 24-13.253906 0-24-10.746094-24-24 0-13.257812 10.746094-24 24-24 13.257813 0 24 10.742188 24 24zm0 0" fill="#fff"/><path style="fill:#fff" d="m276.988281 454.003906v-147.332031l105.25 105.25 29.683594-29.679687-105.25-105.253907h147.328125v-41.972656h-147.328125l105.710937-105.710937-29.683593-29.683594-105.710938 105.710937v-147.328125h-41.976562v147.328125l-105.710938-105.710937-29.679687 29.683594 105.710937 105.710937h-147.332031v41.972656h147.332031l-103.21875 103.21875 29.683594 29.679688 103.214844-103.214844v147.332031zm0 0" fill="#fff"/><path style="fill:#fff" d="m310.835938 256.003906c0 30.28125-24.550782 54.832032-54.835938 54.832032-30.28125 0-54.832031-24.550782-54.832031-54.832032 0-30.285156 24.550781-54.835937 54.832031-54.835937 30.285156 0 54.835938 24.550781 54.835938 54.835937zm0 0" fill="#fff"/><path  style="fill:#fff" d="m276 256.003906c0 11.042969-8.953125 20-20 20-11.042969 0-20-8.957031-20-20 0-11.046875 8.957031-20 20-20 11.046875 0 20 8.953125 20 20zm0 0" fill="#fff"/><g fill="#fff"><path d="m502 256.152344c0 13.257812-10.746094 24-24 24s-24-10.742188-24-24c0-13.253906 10.746094-24 24-24s24 10.746094 24 24zm0 0"/><path d="m58 255.851562c0 13.253907-10.746094 24-24 24s-24-10.746093-24-24c0-13.257812 10.746094-24 24-24s24 10.742188 24 24zm0 0"/><path d="m437.085938 99.132812c0 13.253907-10.746094 24-24 24-13.253907 0-24-10.746093-24-24 0-13.257812 10.746093-24 24-24 13.253906 0 24 10.742188 24 24zm0 0"/><path d="m122.914062 412.871094c0 13.257812-10.742187 24-24 24-13.253906 0-24-10.742188-24-24 0-13.253906 10.746094-24 24-24 13.257813 0 24 10.746094 24 24zm0 0"/><path d="m436.871094 413.085938c0 13.257812-10.746094 24-24 24s-24-10.742188-24-24c0-13.253907 10.746094-24 24-24s24 10.746093 24 24zm0 0"/><path d="m123.128906 98.917969c0 13.253906-10.742187 24-24 24-13.253906 0-24-10.746094-24-24 0-13.253907 10.746094-24 24-24 13.257813 0 24 10.746093 24 24zm0 0"/></g><path d="m256 58.003906c-109.351562 0-198 88.644532-198 198 0 109.351563 88.648438 198 198 198s198-88.648437 198-198c0-109.355468-88.648438-198-198-198zm0 351.914063c-85.003906 0-153.914062-68.910157-153.914062-153.914063 0-85.007812 68.910156-153.917968 153.914062-153.917968 85.007812 0 153.914062 68.910156 153.914062 153.917968 0 85.003906-68.90625 153.914063-153.914062 153.914063zm0 0" fill="#fff"/><path d="m256 226.003906c-16.539062 0-30 13.457032-30 30 0 16.539063 13.460938 30 30 30 16.542969 0 30-13.460937 30-30 0-16.542968-13.457031-30-30-30zm0 40c-5.511719 0-10-4.488281-10-10 0-5.515625 4.488281-10 10-10 5.515625 0 10 4.484375 10 10 0 5.511719-4.484375 10-10 10zm0 0"/><path d="m478 222.152344c-5.84375 0-11.351562 1.484375-16.160156 4.09375-3.371094-23.351563-10.664063-46.066406-21.605469-66.882813-5.074219-9.652343-10.941406-18.894531-17.480469-27.640625 5.265625-1.550781 10.226563-4.402344 14.375-8.550781 13.253906-13.253906 13.253906-34.824219 0-48.082031-13.257812-13.253906-34.828125-13.257813-48.085937 0-4.128907 4.128906-6.96875 9.066406-8.527344 14.304687-1.179687-.882812-2.359375-1.765625-3.554687-2.625-4.492188-3.214843-10.738282-2.183593-13.953126 2.308594-3.214843 4.492187-2.183593 10.738281 2.308594 13.953125 49.269532 35.277344 78.683594 92.460938 78.683594 152.972656 0 103.660156-84.335938 188-188 188s-188-84.339844-188-188c0-103.664062 84.335938-188 188-188 10.363281 0 20.761719.847656 30.902344 2.523438 5.449218.902344 10.59375-2.785156 11.496094-8.238282.898437-5.445312-2.789063-10.59375-8.238282-11.496093-1.359375-.222657-2.730468-.433594-4.097656-.632813 2.609375-4.808594 4.089844-10.3125 4.089844-16.160156 0-18.746094-15.25-34-34-34-18.746094 0-34 15.253906-34 34 0 5.839844 1.480468 11.335938 4.082031 16.140625-35.066406 5.046875-67.335937 18.863281-94.5 39.160156-1.546875-5.285156-4.402344-10.265625-8.5625-14.425781-13.257813-13.257812-34.828125-13.253906-48.082031 0-13.257813 13.257812-13.257813 34.828125 0 48.085938 4.148437 4.148437 9.109375 6.996093 14.378906 8.550781-20.335938 27.132812-34.195312 59.386719-39.289062 94.441406-4.816407-2.613281-10.328126-4.101563-16.179688-4.101563-18.746094 0-34 15.25-34 34 0 18.746094 15.253906 34 34 34 5.835938 0 11.335938-1.480468 16.140625-4.082031 5.046875 35.066407 18.859375 67.335938 39.160156 94.5-5.285156 1.546875-10.265625 4.402344-14.425781 8.5625-13.257812 13.253907-13.257812 34.824219 0 48.082031 6.628906 6.628907 15.335938 9.941407 24.039062 9.941407 8.707032 0 17.414063-3.3125 24.042969-9.941407 4.148438-4.148437 7-9.113281 8.550781-14.382812 27.136719 20.339844 59.390626 34.195312 94.445313 39.292969-2.617187 4.8125-4.101563 10.324219-4.101563 16.179687 0 18.746094 15.25 34 34 34 18.746094 0 34-15.253906 34-34 0-5.839844-1.480468-11.335937-4.082031-16.140625 35.066407-5.046875 67.335938-18.859375 94.496094-39.160156 1.550781 5.285156 4.402344 10.265625 8.5625 14.425781 6.632813 6.628906 15.335937 9.941406 24.042969 9.941406 8.707031 0 17.414062-3.3125 24.042968-9.941406 13.257813-13.257812 13.257813-34.828125 0-48.082031-4.148437-4.152344-9.113281-7-14.382812-8.554687 20.339844-27.132813 34.195312-59.386719 39.292969-94.441407 4.8125 2.613281 10.324219 4.101563 16.179687 4.101563 18.746094 0 34-15.25 34-34 0-18.746094-15.253906-34-34.003906-34zm-74.8125-132.921875c2.726562-2.726563 6.3125-4.09375 9.898438-4.09375 3.585937 0 7.171874 1.367187 9.898437 4.09375 5.457031 5.460937 5.460937 14.34375 0 19.800781-5.457031 5.457031-14.339844 5.457031-19.796875 0-5.460938-5.460938-5.460938-14.339844 0-19.800781zm-147.035156-69.226563c7.71875 0 14 6.277344 14 14 0 7.71875-6.28125 14-14 14s-14-6.28125-14-14c0-7.722656 6.28125-14 14-14zm-166.921875 69.015625c2.730469-2.730469 6.3125-4.09375 9.898437-4.09375 3.585938 0 7.171875 1.363281 9.898438 4.09375 5.460937 5.457031 5.460937 14.339844 0 19.796875-5.457032 5.460938-14.339844 5.460938-19.796875 0-5.457031-5.457031-5.457031-14.339844 0-19.796875zm-55.230469 180.832031c-7.71875 0-14-6.28125-14-14s6.28125-14 14-14c7.722656 0 14 6.28125 14 14s-6.277344 14-14 14zm74.816406 152.921876c-5.460937 5.457031-14.339844 5.457031-19.800781 0-5.457031-5.460938-5.457031-14.34375 0-19.800782 2.730469-2.730468 6.3125-4.09375 9.898437-4.09375 3.585938 0 7.171876 1.363282 9.898438 4.09375 5.460938 5.460938 5.460938 14.339844.003906 19.800782zm147.035156 69.230468c-7.722656 0-14-6.28125-14-14 0-7.722656 6.277344-14 14-14 7.71875 0 14 6.277344 14 14 0 7.71875-6.28125 14-14 14zm166.921876-69.019531c-5.460938 5.460937-14.34375 5.460937-19.800782 0-5.457031-5.457031-5.457031-14.339844 0-19.796875 2.730469-2.730469 6.3125-4.09375 9.898438-4.09375 3.585937 0 7.171875 1.363281 9.898437 4.09375 5.460938 5.457031 5.460938 14.339844.003907 19.796875zm55.226562-152.832031c-7.71875 0-14-6.28125-14-14s6.28125-14 14-14c7.722656 0 14 6.28125 14 14s-6.277344 14-14 14zm0 0"/><path d="m92.085938 256.003906c0 90.382813 73.53125 163.914063 163.914062 163.914063s163.914062-73.53125 163.914062-163.914063c0-90.386718-73.53125-163.917968-163.914062-163.917968s-163.914062 73.53125-163.914062 163.917968zm175.207031-143.476562v79.644531c-3.671875-.648437-7.4375-1.003906-11.292969-1.003906-3.746094 0-7.414062.335937-10.988281.949219v-79.613282c3.628906-.277344 7.292969-.417968 10.988281-.417968 3.800781 0 7.566406.152343 11.292969.441406zm129.253906 112.488281h-65.429687l46.261718-46.261719c8.921875 13.96875 15.492188 29.578125 19.167969 46.261719zm2.953125 20c.273438 3.625.414062 7.289063.414062 10.988281 0 3.796875-.148437 7.5625-.4375 11.289063h-79.648437c.648437-3.671875 1.007813-7.4375 1.007813-11.289063 0-3.746094-.339844-7.414062-.949219-10.988281zm-22.238281 88.421875-46.144531-46.144531h65.363281c-3.707031 16.640625-10.292969 32.210937-19.21875 46.144531zm-76.425781-77.433594c0 24.71875-20.113282 44.832032-44.835938 44.832032-24.71875 0-44.832031-20.113282-44.832031-44.832032 0-24.722656 20.113281-44.835937 44.832031-44.835937 24.722656 0 44.835938 20.113281 44.835938 44.835937zm-75.824219 140.542969c-16.679688-3.675781-32.289063-10.246094-46.257813-19.167969l46.257813-46.261718zm-109.488281-109.253906h65.664062l-46.328125 46.328125c-8.988281-13.980469-15.617187-29.613282-19.335937-46.328125zm-2.996094-20c-.292969-3.726563-.441406-7.492188-.441406-11.289063 0-3.699218.140624-7.363281.417968-10.988281h79.613282c-.613282 3.574219-.949219 7.238281-.949219 10.988281 0 3.851563.355469 7.617188 1.003906 11.289063zm22.214844-88.726563 46.449218 46.449219h-65.734375c3.691407-16.757813 10.300781-32.429687 19.285157-46.449219zm152.550781-63.042968c16.714843 3.71875 32.347656 10.347656 46.328125 19.339843l-46.328125 46.328125zm-62.28125 65.667968-46.445313-46.449218c14.015625-8.984376 29.691406-15.59375 46.445313-19.285157zm-62.660157-34.375 56.265626 56.265625c-6.015626 4.261719-11.273438 9.519531-15.539063 15.539063l-56.265625-56.265625c4.78125-5.566407 9.976562-10.761719 15.539062-15.539063zm-15.398437 202.996094 56.253906-56.25c4.28125 6.003906 9.558594 11.246094 15.589844 15.488281l-56.277344 56.277344c-5.574219-4.773437-10.777343-9.957031-15.566406-15.515625zm98.058594 49.6875v-79.613281c3.574219.609375 7.242187.949219 10.988281.949219 3.855469 0 7.621094-.359376 11.292969-1.007813v79.648437c-3.726563.289063-7.492188.4375-11.292969.4375-3.695312.003907-7.359375-.136718-10.988281-.414062zm42.28125-68.382812 46.144531 46.144531c-13.933594 8.929687-29.503906 15.515625-46.144531 19.21875zm62.355469 34.070312-56.265626-56.265625c6.019532-4.261719 11.277344-9.519531 15.539063-15.539063l56.265625 56.265626c-4.78125 5.566406-9.972656 10.761718-15.539062 15.539062zm15.675781-202.667969-56.277344 56.277344c-4.242187-6.03125-9.484375-11.308594-15.488281-15.589844l56.253906-56.253906c5.558594 4.789063 10.742188 9.992187 15.511719 15.566406zm0 0"/><path d="m331.789062 83.042969c2.632813 0 5.210938-1.070313 7.070313-2.929688 1.863281-1.859375 2.929687-4.441406 2.929687-7.070312 0-2.632813-1.066406-5.210938-2.929687-7.070313-1.859375-1.859375-4.429687-2.929687-7.070313-2.929687-2.628906 0-5.207031 1.070312-7.066406 2.929687-1.863281 1.859375-2.933594 4.4375-2.933594 7.070313 0 2.628906 1.070313 5.210937 2.933594 7.070312 1.859375 1.859375 4.4375 2.929688 7.066406 2.929688zm0 0"/></svg>
