<svg xmlns="http://www.w3.org/2000/svg" height="587pt" version="1.1" viewBox="0 -19 587.465 587" width="587pt">
<g id="surface1">
<path style="fill:#fff" d="M 468.699219 5.835938 C 468.714844 5.570312 468.714844 5.300781 468.699219 5.035156 L 468.378906 4.339844 L 468.003906 3.644531 L 467.523438 2.949219 L 467.523438 2.574219 L 466.238281 1.664062 L 465.648438 1.179688 L 464.792969 0.914062 L 464.152344 0.539062 L 463.402344 0.21875 L 123.171875 0.21875 L 122.367188 0.539062 L 121.726562 0.859375 L 121.03125 1.289062 L 120.441406 1.769531 L 119.851562 2.359375 L 119.851562 2.734375 L 119.371094 3.429688 L 118.996094 4.125 L 118.675781 4.820312 C 118.660156 5.085938 118.660156 5.355469 118.675781 5.621094 C 118.675781 5.621094 118.675781 6.105469 118.675781 6.316406 C 118.660156 6.601562 118.660156 6.890625 118.675781 7.175781 C 118.675781 7.175781 118.675781 7.175781 118.675781 7.601562 L 118.675781 249.660156 C 118.675781 249.660156 118.675781 249.660156 118.675781 250.089844 C 118.660156 250.375 118.660156 250.664062 118.675781 250.945312 C 118.675781 250.945312 118.675781 251.429688 118.675781 251.640625 C 118.660156 251.910156 118.660156 252.175781 118.675781 252.445312 L 118.996094 253.140625 L 119.371094 253.835938 L 119.851562 254.53125 L 119.851562 254.90625 L 120.601562 255.601562 L 121.082031 256.03125 L 121.992188 256.566406 L 122.476562 256.832031 L 123.707031 257.261719 L 124.027344 257.261719 C 124.578125 257.320312 125.136719 257.320312 125.6875 257.261719 L 460.941406 257.261719 C 461.492188 257.320312 462.046875 257.320312 462.597656 257.261719 L 462.921875 257.261719 L 464.152344 256.832031 L 464.632812 256.566406 L 465.542969 256.03125 L 466.023438 255.601562 L 466.773438 254.90625 L 466.773438 254.53125 L 467.253906 253.835938 L 467.628906 253.140625 L 467.949219 252.445312 C 467.96875 252.175781 467.96875 251.910156 467.949219 251.640625 C 467.949219 251.640625 467.949219 251.160156 467.949219 250.945312 C 467.96875 250.664062 467.96875 250.375 467.949219 250.089844 C 467.949219 250.089844 467.949219 250.089844 467.949219 249.660156 L 467.949219 7.816406 C 467.949219 7.816406 467.949219 7.816406 467.949219 7.390625 C 467.96875 7.105469 467.96875 6.816406 467.949219 6.53125 C 467.949219 6.53125 468.753906 6.050781 468.699219 5.835938 Z M 439.097656 15.847656 L 421.488281 30.78125 L 165.511719 30.78125 L 147.902344 15.847656 Z M 452.910156 232.320312 L 432.675781 214.921875 L 432.675781 42.558594 L 453.125 25.214844 Z M 371.921875 148.0625 C 365.65625 166.105469 359.769531 183.125 344.671875 187.140625 C 318.605469 194.367188 306.132812 189.011719 283.542969 179.753906 C 271.296875 174.527344 258.792969 169.933594 246.074219 165.996094 C 212.617188 155.933594 186.441406 175.632812 170.382812 195.757812 L 170.382812 46.839844 L 416.617188 46.839844 L 416.617188 98.390625 C 388.246094 101.066406 379.144531 126.972656 371.921875 148.0625 Z M 416.617188 114.554688 L 416.617188 210.425781 L 179.75 210.425781 C 189.867188 195.382812 211.117188 172.042969 241.257812 181.144531 C 253.535156 184.929688 265.617188 189.339844 277.441406 194.367188 C 300.671875 203.894531 317.480469 210.800781 348.742188 202.503906 C 372.082031 196.292969 380.003906 173.382812 387.070312 153.148438 C 394.722656 131.203125 400.558594 116.910156 416.617188 114.554688 Z M 134.304688 232.320312 L 134.304688 25.160156 L 154.324219 42.558594 L 154.324219 214.921875 Z M 148.113281 241.632812 L 165.511719 226.484375 L 421.488281 226.484375 L 439.101562 241.417969 Z M 148.113281 241.632812 " />
<path style="fill:#fff" d="M 8.03125 549.53125 L 578.972656 549.53125 C 583.402344 549.53125 587 545.933594 587 541.503906 C 587 537.070312 583.402344 533.472656 578.972656 533.472656 L 540.589844 533.472656 L 540.589844 346.121094 C 557.089844 333.097656 559.910156 309.164062 546.886719 292.667969 C 533.863281 276.167969 509.929688 273.347656 493.433594 286.371094 C 476.933594 299.394531 474.113281 323.328125 487.136719 339.828125 C 488.984375 342.164062 491.09375 344.273438 493.433594 346.121094 L 493.433594 370.261719 C 436.992188 395.5625 372.289062 394.800781 316.464844 368.175781 L 316.464844 346.335938 C 332.960938 333.3125 335.785156 309.378906 322.761719 292.882812 C 309.734375 276.382812 285.804688 273.5625 269.304688 286.585938 C 252.808594 299.609375 249.988281 323.542969 263.011719 340.042969 C 264.859375 342.378906 266.96875 344.488281 269.304688 346.335938 L 269.304688 369.40625 C 213.15625 394.140625 149.011719 393.183594 93.625 366.785156 L 93.625 346.335938 C 110.121094 333.3125 112.941406 309.378906 99.917969 292.882812 C 86.894531 276.382812 62.960938 273.5625 46.464844 286.585938 C 29.96875 299.609375 27.148438 323.542969 40.171875 340.042969 C 42.015625 342.378906 44.125 344.488281 46.464844 346.335938 L 46.464844 533.6875 L 8.03125 533.6875 C 3.597656 533.6875 0 537.285156 0 541.71875 C 0 546.148438 3.597656 549.746094 8.03125 549.746094 Z M 62.46875 533.472656 L 62.46875 353.832031 C 67.429688 354.832031 72.546875 354.832031 77.511719 353.832031 L 77.511719 533.472656 Z M 285.363281 533.472656 L 285.363281 353.832031 C 290.324219 354.832031 295.441406 354.832031 300.40625 353.832031 L 300.40625 533.472656 Z M 509.492188 533.472656 L 509.492188 353.832031 C 514.453125 354.832031 519.570312 354.832031 524.53125 353.832031 L 524.53125 533.472656 Z M 517.039062 294.464844 C 529.1875 294.464844 539.039062 304.316406 539.039062 316.464844 C 539.039062 328.617188 529.1875 338.46875 517.039062 338.46875 C 504.886719 338.46875 495.035156 328.617188 495.035156 316.464844 C 495.0625 304.347656 504.863281 294.523438 516.984375 294.464844 Z M 316.464844 386.109375 C 372.769531 410.652344 436.621094 411.332031 493.429688 387.980469 L 493.429688 397.292969 C 436.988281 422.59375 372.289062 421.832031 316.464844 395.207031 Z M 316.464844 412.871094 C 372.769531 437.414062 436.621094 438.09375 493.429688 414.746094 L 493.429688 533.421875 L 316.464844 533.421875 Z M 292.859375 294.464844 C 305.007812 294.464844 314.859375 304.316406 314.859375 316.464844 C 314.859375 328.617188 305.007812 338.46875 292.859375 338.46875 C 280.707031 338.46875 270.855469 328.617188 270.855469 316.464844 C 270.882812 304.328125 280.71875 294.492188 292.859375 294.464844 Z M 93.570312 384.554688 C 149.4375 408.933594 212.761719 409.839844 269.304688 387.070312 L 269.304688 396.386719 C 213.152344 421.121094 149.007812 420.164062 93.621094 393.761719 Z M 93.570312 411.320312 C 149.4375 435.699219 212.761719 436.601562 269.304688 413.835938 L 269.304688 533.527344 L 93.570312 533.527344 Z M 70.015625 294.464844 C 82.167969 294.464844 92.015625 304.316406 92.015625 316.464844 C 92.015625 328.617188 82.167969 338.46875 70.015625 338.46875 C 57.863281 338.46875 48.015625 328.617188 48.015625 316.464844 C 48.042969 304.328125 57.875 294.492188 70.015625 294.464844 Z M 70.015625 294.464844 " />
<path style="fill:#fff" d="M 307.792969 69.054688 C 285.503906 69.054688 267.429688 87.128906 267.429688 109.417969 C 267.429688 131.707031 285.503906 149.777344 307.792969 149.777344 C 330.082031 149.777344 348.152344 131.707031 348.152344 109.417969 C 348.121094 87.136719 330.070312 69.085938 307.792969 69.054688 Z M 307.792969 133.71875 C 294.375 133.71875 283.492188 122.835938 283.492188 109.417969 C 283.492188 95.996094 294.375 85.113281 307.792969 85.113281 C 321.210938 85.113281 332.09375 95.996094 332.09375 109.417969 C 332.09375 122.847656 321.222656 133.738281 307.792969 133.773438 Z M 307.792969 133.71875 " />
</g>
</svg>
