<?xml version="1.0" encoding="UTF-8" ?>
<!DOCTYPE svg PUBLIC "-//W3C//DTD SVG 1.1//EN" "http://www.w3.org/Graphics/SVG/1.1/DTD/svg11.dtd">
<svg width="708pt" height="79pt" viewBox="0 0 1210 136" version="1.1" xmlns="http://www.w3.org/2000/svg">
<g id="#ffffffff">
</g>
<g id="#757575ff">
<path fill="#757575" opacity="1.00" d=" M 50.33 0.00 L 57.64 0.00 C 69.82 0.66 81.50 5.99 90.18 14.52 C 86.66 17.77 83.58 21.50 79.83 24.50 C 75.76 21.78 71.98 18.49 67.26 16.91 C 52.93 11.33 35.43 15.77 25.61 27.63 C 13.30 41.50 13.54 64.32 26.02 78.01 C 38.91 93.23 64.63 95.04 79.17 81.23 C 84.70 76.46 87.14 69.27 88.20 62.25 C 76.72 62.24 65.24 62.28 53.75 62.23 C 53.74 57.41 53.74 52.58 53.76 47.76 C 69.53 47.83 85.32 47.58 101.09 47.85 C 102.97 47.61 102.59 49.73 102.85 50.92 C 103.82 62.49 102.03 74.73 95.51 84.57 C 88.70 94.56 77.90 101.85 65.97 104.06 C 52.14 106.91 37.17 104.52 25.25 96.82 C 12.44 88.79 3.26 75.09 1.13 60.07 C -0.89 46.93 2.52 33.07 10.37 22.34 C 19.51 9.44 34.59 1.12 50.33 0.00 Z" />
<path fill="#757575" opacity="1.00" d=" M 331.00 3.52 C 336.00 3.49 341.00 3.49 346.00 3.52 C 346.00 36.68 346.01 69.84 346.00 103.00 C 341.00 103.00 336.00 103.00 331.00 103.00 C 331.00 69.84 331.00 36.68 331.00 3.52 Z" />
<path fill="#757575" opacity="1.00" d=" M 712.44 25.94 C 714.99 13.23 730.02 5.93 741.89 10.41 C 748.31 12.71 752.76 18.57 755.07 24.79 C 751.63 26.69 748.19 28.57 744.62 30.18 C 743.25 27.47 742.03 24.46 739.54 22.57 C 734.85 18.76 726.78 21.06 724.78 26.75 C 723.36 30.82 724.61 35.35 727.24 38.64 C 737.27 51.76 747.29 64.88 757.34 77.98 C 760.07 73.44 762.65 68.79 765.57 64.36 C 768.66 66.34 771.80 68.25 774.93 70.16 C 771.47 75.88 767.90 81.53 764.33 87.17 C 767.15 90.99 770.18 94.65 772.87 98.57 C 769.82 100.73 766.83 102.98 763.88 105.27 C 761.77 102.58 759.68 99.87 757.66 97.11 C 744.64 109.13 722.28 107.43 710.83 94.10 C 701.01 83.62 700.07 66.24 708.67 54.74 C 711.21 51.09 714.67 48.19 718.30 45.66 C 714.53 39.86 710.50 33.16 712.44 25.94 M 714.76 79.22 C 719.04 93.88 740.31 99.48 750.87 88.18 C 742.23 76.94 733.72 65.59 725.04 54.38 C 716.68 59.26 711.41 69.73 714.76 79.22 Z" />
<path fill="#757575" opacity="1.00" d=" M 819.22 24.23 C 827.98 14.54 840.93 8.97 854.00 9.21 C 866.87 8.72 880.09 13.99 888.26 24.10 C 885.98 27.24 882.81 29.59 880.14 32.38 C 868.31 17.27 843.53 17.01 830.18 30.17 C 822.66 36.87 818.95 47.10 819.21 57.05 C 818.96 66.54 822.18 76.28 828.96 83.08 C 838.48 93.09 854.01 96.26 866.88 91.55 C 873.16 89.38 878.39 85.04 882.88 80.25 C 885.62 83.02 888.39 85.78 891.21 88.48 C 874.95 109.01 840.84 110.90 822.02 92.88 C 802.76 75.86 801.66 42.82 819.22 24.23 Z" />
<path fill="#757575" opacity="1.00" d=" M 475.03 11.23 C 479.55 11.25 484.07 11.22 488.60 11.30 C 500.04 41.89 511.65 72.41 523.12 102.99 C 518.76 102.93 514.39 103.20 510.04 102.89 C 506.36 94.98 504.13 86.37 500.88 78.24 C 488.12 78.33 475.37 78.13 462.61 78.34 C 459.77 86.59 456.66 94.73 453.81 102.97 C 449.34 103.01 444.88 103.00 440.42 103.00 C 451.88 72.38 463.40 41.79 475.03 11.23 M 481.60 25.77 C 476.83 39.57 471.63 53.22 466.79 67.00 C 476.78 66.98 486.77 67.05 496.76 66.95 C 491.61 53.26 487.05 39.34 481.60 25.77 Z" />
<path fill="#757575" opacity="1.00" d=" M 970.05 11.21 C 974.01 11.26 977.98 11.26 981.96 11.21 C 982.06 41.81 981.97 72.40 982.00 103.00 C 977.99 103.00 973.99 103.00 970.00 103.00 C 970.03 72.40 969.93 41.80 970.05 11.21 Z" />
<path fill="#757575" opacity="1.00" d=" M 585.22 21.03 C 589.23 20.99 593.23 20.99 597.24 21.00 C 597.25 27.38 597.28 33.76 597.21 40.13 C 602.27 40.31 607.33 40.28 612.40 40.19 C 612.52 43.87 612.52 47.56 612.48 51.24 C 607.41 51.26 602.34 51.26 597.27 51.24 C 597.24 61.84 597.25 72.44 597.25 83.04 C 597.23 86.31 597.93 90.22 601.00 92.02 C 604.08 93.84 607.76 93.00 611.04 92.27 C 612.53 95.71 613.95 99.19 615.17 102.75 C 608.14 104.67 600.13 105.07 593.59 101.39 C 588.15 98.37 585.42 92.07 585.29 86.05 C 585.12 74.44 585.39 62.83 585.17 51.23 C 581.52 51.27 577.87 51.26 574.23 51.19 C 574.25 47.55 574.25 43.91 574.24 40.26 C 577.90 40.25 581.56 40.24 585.23 40.24 C 585.25 33.83 585.26 27.43 585.22 21.03 Z" />
<path fill="#757575" opacity="1.00" d=" M 1003.75 21.00 C 1007.76 20.99 1011.77 20.99 1015.79 21.04 C 1015.73 27.44 1015.74 33.84 1015.77 40.24 C 1020.83 40.25 1025.89 40.27 1030.95 40.21 C 1031.00 43.89 1031.00 47.57 1031.00 51.24 C 1025.94 51.26 1020.88 51.27 1015.83 51.23 C 1015.66 61.49 1015.80 71.76 1015.73 82.02 C 1015.73 85.52 1016.05 89.72 1019.27 91.85 C 1022.38 93.93 1026.29 92.99 1029.69 92.25 C 1031.01 95.70 1032.39 99.12 1033.82 102.52 C 1027.36 104.76 1020.03 104.86 1013.69 102.22 C 1007.41 99.47 1003.91 92.60 1003.79 85.95 C 1003.65 74.39 1003.80 62.81 1003.74 51.25 C 1000.07 51.26 996.41 51.26 992.75 51.24 C 992.72 47.57 992.73 43.89 992.83 40.22 C 996.47 40.27 1000.12 40.26 1003.77 40.17 C 1003.72 33.78 1003.74 27.39 1003.75 21.00 Z" />
<path fill="#757575" opacity="1.00" d=" M 136.54 37.72 C 146.87 36.10 157.98 39.19 165.61 46.43 C 178.69 58.31 179.56 80.66 167.82 93.75 C 158.75 104.31 142.98 107.93 130.03 103.15 C 121.24 100.05 113.87 93.11 110.45 84.42 C 105.06 71.27 108.38 54.72 119.44 45.48 C 124.26 41.35 130.27 38.65 136.54 37.72 M 137.40 51.51 C 130.62 53.20 125.24 59.07 123.71 65.83 C 121.59 73.96 124.53 83.47 131.57 88.31 C 137.64 92.64 146.40 92.63 152.46 88.28 C 162.31 81.52 163.78 65.99 155.83 57.22 C 151.41 52.02 143.99 49.77 137.40 51.51 Z" />
<path fill="#757575" opacity="1.00" d=" M 210.51 37.73 C 220.85 36.09 231.96 39.18 239.60 46.42 C 252.32 57.98 253.53 79.44 242.74 92.66 C 234.87 102.65 221.13 107.14 208.79 104.49 C 198.83 102.51 189.86 95.82 185.44 86.64 C 179.09 73.80 181.41 56.88 191.92 46.89 C 196.93 41.96 203.57 38.76 210.51 37.73 M 211.37 51.51 C 204.39 53.27 198.94 59.44 197.56 66.44 C 195.73 74.41 198.70 83.56 205.53 88.28 C 211.79 92.79 220.93 92.61 227.02 87.88 C 236.39 80.91 237.61 65.82 229.83 57.22 C 225.39 52.01 217.97 49.76 211.37 51.51 Z" />
<path fill="#757575" opacity="1.00" d=" M 282.83 37.86 C 291.39 36.00 300.69 38.64 306.82 44.93 C 306.77 43.13 306.74 41.33 306.72 39.53 C 311.48 39.48 316.24 39.49 321.00 39.52 C 321.00 60.01 320.99 80.51 321.01 101.00 C 320.98 110.06 318.74 119.68 312.36 126.43 C 307.82 131.34 301.39 133.89 295.01 135.39 C 290.68 134.85 286.33 135.11 282.00 134.84 C 271.49 132.94 262.62 125.07 258.58 115.30 C 262.97 113.54 267.30 111.67 271.70 109.93 C 273.89 114.02 276.75 118.01 281.06 120.08 C 288.31 123.77 298.43 122.05 303.21 115.18 C 306.81 110.13 306.81 103.62 306.80 97.67 C 300.78 103.47 292.17 106.42 283.88 104.83 C 268.25 102.53 255.99 87.72 255.99 72.03 C 255.39 56.22 267.18 40.80 282.83 37.86 M 285.42 51.46 C 281.37 52.51 277.76 55.03 275.29 58.40 C 268.94 66.82 269.87 80.09 277.95 87.08 C 283.87 92.51 293.69 93.18 300.05 88.12 C 310.05 80.35 310.25 63.51 300.92 55.14 C 296.79 51.40 290.79 50.08 285.42 51.46 Z" />
<path fill="#757575" opacity="1.00" d=" M 364.10 45.10 C 373.42 36.75 388.08 34.74 399.11 40.82 C 407.57 45.37 412.69 54.04 415.73 62.87 C 400.67 69.25 385.44 75.22 370.45 81.76 C 373.67 87.28 379.26 91.81 385.97 91.55 C 393.06 92.14 399.49 87.90 403.36 82.22 C 407.20 84.80 411.25 87.11 414.89 90.00 C 407.71 102.07 392.03 107.63 378.59 104.28 C 368.74 102.09 360.13 95.08 356.08 85.83 C 350.07 72.41 352.88 54.97 364.10 45.10 M 377.78 52.77 C 371.42 56.04 367.91 63.05 367.84 70.04 C 377.95 65.79 388.20 61.85 398.16 57.28 C 393.86 50.65 384.48 48.79 377.78 52.77 Z" />
<path fill="#757575" opacity="1.00" d=" M 623.73 46.78 C 633.67 35.99 652.39 35.13 663.66 44.33 C 666.42 46.57 668.18 49.73 669.70 52.89 C 666.23 54.34 662.76 55.76 659.26 57.11 C 655.20 48.12 642.38 46.37 634.92 51.92 C 631.38 54.47 631.96 60.24 635.87 62.12 C 644.11 65.95 653.82 65.58 661.80 70.16 C 667.58 73.51 671.23 80.24 670.49 86.94 C 670.10 94.26 664.50 100.33 657.92 102.96 C 650.47 105.93 641.92 105.94 634.37 103.35 C 626.87 100.63 621.22 94.26 618.03 87.09 C 621.61 85.56 625.21 84.06 628.85 82.67 C 630.83 86.57 633.31 90.55 637.42 92.49 C 642.99 95.23 650.40 95.37 655.45 91.43 C 659.00 88.82 659.26 82.94 655.64 80.26 C 651.54 77.19 646.16 76.88 641.38 75.53 C 634.98 74.27 628.56 71.82 623.93 67.06 C 618.85 61.61 619.10 52.43 623.73 46.78 Z" />
<path fill="#757575" opacity="1.00" d=" M 1170.16 39.24 C 1176.70 37.45 1183.79 37.77 1190.22 39.88 C 1198.61 42.73 1205.08 49.94 1207.76 58.30 C 1209.60 63.33 1208.83 68.76 1208.99 74.00 C 1192.61 74.01 1176.24 73.99 1159.87 74.00 C 1160.52 79.85 1162.60 85.89 1167.41 89.62 C 1173.67 95.05 1183.40 95.66 1190.46 91.43 C 1193.51 89.62 1195.31 86.44 1197.05 83.46 C 1200.66 84.84 1204.23 86.33 1207.78 87.88 C 1204.11 96.15 1196.51 102.70 1187.57 104.47 C 1177.76 106.42 1166.70 104.69 1159.08 97.85 C 1148.53 88.88 1145.72 73.34 1149.57 60.46 C 1152.62 50.77 1160.13 41.98 1170.16 39.24 M 1169.01 51.98 C 1164.73 54.68 1162.27 59.31 1160.70 63.97 C 1172.83 63.96 1184.97 64.15 1197.10 63.87 C 1195.85 58.16 1192.27 52.63 1186.66 50.45 C 1180.96 48.44 1174.12 48.44 1169.01 51.98 Z" />
<path fill="#757575" opacity="1.00" d=" M 541.19 50.08 C 545.56 41.03 556.32 37.46 565.78 38.82 C 565.74 42.74 565.74 46.65 565.77 50.56 C 559.10 50.03 551.62 50.63 546.68 55.70 C 542.47 59.59 541.37 65.56 541.72 71.05 C 541.81 81.69 541.70 92.32 541.79 102.95 C 537.77 103.01 533.76 103.01 529.76 103.00 C 529.77 82.08 529.67 61.15 529.81 40.23 C 533.60 40.25 537.39 40.25 541.18 40.22 C 541.26 43.51 541.27 46.79 541.19 50.08 Z" />
<path fill="#757575" opacity="1.00" d=" M 1120.38 50.05 C 1123.62 44.24 1129.42 39.96 1136.02 38.88 C 1140.08 38.13 1144.19 38.99 1148.13 40.00 C 1146.59 43.56 1145.44 47.29 1143.64 50.72 C 1141.86 51.40 1139.81 50.48 1137.95 50.57 C 1128.99 49.93 1121.22 58.22 1121.07 66.93 C 1120.88 78.95 1121.06 90.98 1121.00 103.00 C 1116.99 103.00 1112.99 103.00 1109.00 103.00 C 1109.03 82.07 1108.94 61.14 1109.05 40.21 C 1112.84 40.26 1116.63 40.26 1120.44 40.21 C 1120.51 43.49 1120.51 46.77 1120.38 50.05 Z" />
<path fill="#757575" opacity="1.00" d=" M 900.25 40.25 C 904.23 40.25 908.21 40.25 912.20 40.23 C 912.32 52.49 912.23 64.75 912.24 77.00 C 912.25 81.51 913.00 86.39 916.17 89.82 C 919.79 93.94 925.90 94.81 931.04 93.79 C 936.62 92.60 940.56 87.75 942.56 82.65 C 944.29 78.31 943.99 73.55 944.01 68.97 C 944.00 59.38 943.95 49.80 944.05 40.21 C 948.01 40.26 951.98 40.26 955.95 40.21 C 956.07 61.14 955.97 82.07 956.00 102.99 C 952.17 103.00 948.34 103.00 944.52 103.00 C 944.50 100.27 944.50 97.53 944.49 94.80 C 940.39 99.39 935.34 103.54 929.13 104.69 C 921.69 106.06 913.18 104.76 907.54 99.40 C 902.42 94.38 900.24 87.03 900.24 79.99 C 900.25 66.75 900.25 53.50 900.25 40.25 Z" />
<path fill="#757575" opacity="1.00" d=" M 1040.26 40.24 C 1044.23 40.25 1048.21 40.25 1052.19 40.22 C 1052.36 52.15 1052.17 64.08 1052.28 76.01 C 1052.42 80.78 1052.89 86.01 1056.20 89.75 C 1060.19 94.18 1067.02 95.10 1072.52 93.39 C 1079.53 90.84 1083.84 83.24 1083.98 75.99 C 1084.06 64.07 1083.93 52.14 1084.04 40.22 C 1088.08 40.26 1092.13 40.26 1096.18 40.22 C 1096.34 61.15 1096.22 82.07 1096.25 103.00 C 1092.33 103.00 1088.42 103.00 1084.51 103.00 C 1084.50 100.28 1084.50 97.57 1084.52 94.85 C 1080.34 99.87 1074.67 103.97 1068.07 104.89 C 1060.50 105.98 1051.90 104.28 1046.69 98.31 C 1041.74 92.83 1040.29 85.20 1040.25 78.03 C 1040.23 65.43 1040.24 52.84 1040.26 40.24 Z" />
</g>
</svg>
