<svg id="Capa_1" enable-background="new 0 0 512 512" height="512" viewBox="0 0 512 512" width="512" xmlns="http://www.w3.org/2000/svg"><g><path style="fill:#fff" d="m256 365.873c-22.328 0-40.492 18.01-40.492 40.146s18.165 40.146 40.492 40.146 40.492-18.01 40.492-40.146-18.164-40.146-40.492-40.146zm0 65.293c-14.057 0-25.492-11.28-25.492-25.146s11.436-25.146 25.492-25.146 25.492 11.28 25.492 25.146-11.435 25.146-25.492 25.146z"/><path style="fill:#fff" d="m276.399 216.273c-23.369 2.521-40.38 19.537-38.325 38.196 2.043 18.534 22.533 31.593 45.707 29.095 12.879-1.39 24.346-7.265 31.458-16.117 19.308-24.037-3.3-54.995-38.84-51.174zm27.145 41.78c-4.567 5.685-12.557 9.646-21.373 10.598-14.696 1.596-28.067-5.66-29.187-15.823-1.115-10.114 10.166-20.037 25.024-21.64 20.723-2.243 36.907 12.71 25.536 26.865z"/><path style="fill:#fff" d="m170.311 171.299c-16.059 0-29.124 12.963-29.124 28.897s13.065 28.897 29.124 28.897 29.124-12.963 29.124-28.897-13.065-28.897-29.124-28.897zm0 42.795c-7.788 0-14.124-6.234-14.124-13.897s6.336-13.897 14.124-13.897 14.124 6.234 14.124 13.897-6.336 13.897-14.124 13.897z"/><path style="fill:#fff" d="m248.619 151.87c0-15.935-13.065-28.897-29.124-28.897s-29.124 12.963-29.124 28.897 13.065 28.896 29.124 28.896c16.059.001 29.124-12.962 29.124-28.896zm-29.124 13.897c-7.788 0-14.124-6.234-14.124-13.896 0-7.663 6.336-13.897 14.124-13.897s14.124 6.234 14.124 13.897c0 7.661-6.336 13.896-14.124 13.896z"/><path style="fill:#fff" d="m290.626 183.739c16.059 0 29.124-12.963 29.124-28.897s-13.065-28.897-29.124-28.897-29.124 12.963-29.124 28.897 13.065 28.897 29.124 28.897zm0-42.795c7.788 0 14.124 6.234 14.124 13.897s-6.336 13.897-14.124 13.897-14.124-6.234-14.124-13.897 6.336-13.897 14.124-13.897z"/><path style="fill:#fff" d="m237.915 338.009c-.021.01-.04.024-.061.034.033-.016.052-.027.061-.034z"/><path style="fill:#fff" d="m311.282 332.038 19.534 19.242-11.588 11.467c-2.406 2.381-2.921 6.081-1.249 9.03 2.576 4.543 4.846 9.841 6.37 15.193.917 3.223 3.862 5.446 7.213 5.446h16.378c.019 0 .07 0 .083.003v27.067c-.001.035-.001.069-.001.103-.026.024-.065.032-.081.032h-16.378c-3.352 0-6.296 2.224-7.213 5.447-1.501 5.272-3.644 10.385-6.37 15.193-1.67 2.946-1.159 6.646 1.249 9.029l11.598 11.406-.001.001c-2.708 3.135-2.362 7.871.772 10.579s7.87 2.361 10.578-.772c2.346-2.716 3.638-6.186 3.638-9.772 0-4.022-1.579-7.801-4.445-10.637l-7.655-7.574c1.237-2.579 2.342-5.217 3.309-7.9h10.919c5.546 0 10.39-3.002 13.01-7.45h108.618c9.336 0 16.932-7.551 16.932-16.833v-26.444c0-9.282-7.596-16.834-16.932-16.834h-3.57v-306.949h3.568c9.336 0 16.932-7.552 16.932-16.834v-26.444c0-9.281-7.596-16.833-16.932-16.833h-427.136c-9.336 0-16.932 7.552-16.932 16.833v26.444c0 9.282 7.596 16.834 16.932 16.834h3.568v91.5c0 4.143 3.358 7.5 7.5 7.5s7.5-3.357 7.5-7.5v-91.5h390v306.949h-114.806l1.675-1.658c3.503-3.466 7.942-6.841 7.942-14.098 0-4.13-1.732-7.952-4.445-10.636l-19.437-19.233c-5.867-5.805-15.373-5.838-21.273 0l-7.73 7.649c-2.644-1.248-5.348-2.359-8.1-3.33 0-11.763.063-11.104-.143-12.668 28.455-7.062 53.265-21.709 70.573-41.38v4.564c0 11.619 9.453 21.071 21.071 21.071h.144c11.619 0 21.071-9.452 21.071-21.071v-140.032l3.92-22.351c1.385-7.896-2.328-15.98-9.239-20.116-1.047-.626-1.789-1.609-2.09-2.769l-5.067-19.528c-1.505-5.799-8.897-7.58-12.875-3.089l-16.526 18.661c-9.357 10.565-11.618 25.668-5.761 38.475l5.351 11.699v3.74c-25.118-28.574-65.721-46.129-109.672-46.129-74.626 0-135.339 50.019-135.339 111.5 0 28.709 13.176 55.963 37.102 76.741 21.318 18.513 49.391 30.322 79.827 33.727v8.956c-2.752.971-5.456 2.082-8.1 3.33l-7.73-7.649c-5.867-5.805-15.373-5.838-21.273 0l-19.436 19.232c-5.996 5.931-5.864 15.476-.001 21.274l5.172 5.118h-114.805v-180.449c0-4.143-3.358-7.5-7.5-7.5s-7.5 3.357-7.5 7.5v180.449h-3.568c-9.336 0-16.932 7.552-16.932 16.834v26.444c0 9.282 7.596 16.833 16.932 16.833h108.618c2.62 4.448 7.464 7.45 13.01 7.45h10.919c.966 2.684 2.071 5.321 3.309 7.9l-7.654 7.573c-2.867 2.836-4.446 6.614-4.446 10.639 0 4.022 1.579 7.8 4.445 10.636l19.437 19.233c2.845 2.815 6.623 4.366 10.637 4.366s7.791-1.551 10.637-4.366l7.729-7.648c2.706 1.277 5.461 2.402 8.101 3.329v10.713c0 8.272 6.766 15.003 15.083 15.003h27.487c8.316 0 15.083-6.73 15.083-15.003v-10.713c2.752-.971 5.457-2.082 8.1-3.33l7.73 7.649c2.311 2.286 5.233 3.741 8.451 4.208 4.105.598 7.878-2.26 8.472-6.359.594-4.1-2.274-7.917-6.373-8.511l-11.589-11.468c-2.369-2.345-6-2.844-8.915-1.227-4.872 2.704-10.05 4.83-15.391 6.318-3.243.904-5.486 3.858-5.486 7.225l.011 16.173c-.024.039-.074.039-.093.039h-27.487c-.019 0-.07 0-.083-.003v-16.207c0-3.366-2.243-6.319-5.485-7.225-5.154-1.436-10.342-3.515-15.391-6.317-2.915-1.619-6.547-1.119-8.917 1.226l-11.589 11.468 5.275 5.331-24.884-24.514 11.588-11.467c2.408-2.383 2.919-6.083 1.249-9.029-2.726-4.809-4.869-9.921-6.37-15.193-.917-3.224-3.862-5.447-7.213-5.447h-16.377c-.019 0-.067 0-.081-.003 0-.044-.001-.088-.002-.134l-.011-27.031c.024-.036.074-.037.093-.037h16.378c3.352 0 6.296-2.224 7.213-5.446 1.516-5.326 3.783-10.632 6.37-15.193 1.671-2.948 1.158-6.648-1.249-9.03l-11.588-11.416c.104-.103 19.398-19.195 19.502-19.297l11.695 11.531c2.377 2.351 6.01 2.84 8.915 1.227 7.159-3.973 16.884-7.009 16.618-6.783 2.42-1.161 4.259-3.739 4.259-6.759l-.011-16.118c.03-.032.064-.06.093-.093l27.535.015c.011.004.023.006.035.01v16.186c0 3.455 2.396 6.363 5.486 7.225 5.341 1.489 10.517 3.613 15.391 6.317 2.912 1.616 6.545 1.12 8.915-1.227zm71.26-55.767c0 3.348-2.723 6.071-6.071 6.071h-.144c-3.348 0-6.071-2.724-6.071-6.071v-28.305-83.271-21.61h12.286zm-15.647-179.28 7.189-8.118c1.65 6.359 2.582 13.07 10.438 17.77 1.64.981 2.49 2.808 2.166 4.652l-2.945 16.79h-16.17l-4.027-8.804c-3.391-7.414-2.077-16.164 3.349-22.29zm-217.917 295.429v19.752h-106.546c-1.065 0-1.932-.822-1.932-1.833v-26.444c0-1.012.867-1.834 1.932-1.834h110.727c-2.503 2.606-4.181 6.342-4.181 10.359zm123.767-92.081c-.946-.191-1.964-.3-3.001-.3h-27.487c-2.924 0-5.779.884-8.098 2.354-61.306-4.644-108.914-46.401-108.914-96.063 0-53.21 53.984-96.5 120.339-96.5 47.35 0 90.155 22.232 109.672 56.794v79.413c-15.475 27.388-46.091 47.544-82.511 54.302zm196.823 81.722c1.065 0 1.932.822 1.932 1.834v26.444c0 1.011-.867 1.833-1.932 1.833h-106.546v-19.752c0-3.945-1.606-7.677-4.182-10.359zm-429.068-338.784v-26.444c0-1.011.867-1.833 1.932-1.833h427.136c1.065 0 1.932.822 1.932 1.833v26.444c0 1.012-.867 1.834-1.932 1.834-456.631 0-429.068.893-429.068-1.834z"/></g></svg>
